<?xml version="1.0" encoding="iso-8859-1"?>
<!-- Generator: Adobe Illustrator 19.0.0, SVG Export Plug-In . SVG Version: 6.00 Build 0)  -->
<svg version="1.1" id="Layer_1" xmlns="http://www.w3.org/2000/svg" xmlns:xlink="http://www.w3.org/1999/xlink" x="0px" y="0px"
	 viewBox="0 0 512 512" style="enable-background:new 0 0 512 512;" xml:space="preserve">
<g>
	<path style="fill:#6EBEC5;" d="M256,499.037c-137.803,0-249.518-111.715-249.518-249.518C6.482,111.715,118.197,0,256,0
		s249.518,111.715,249.518,249.518S393.803,499.037,256,499.037L256,499.037z"/>
	<path style="fill:#5EABB2;" d="M482.699,145.287H416.23l-29.044-30.636h-8.995v4.613c-1.189-1.455-16.71-17.058-18.569-18.403
		c-3.918-5.409-10.239-8.965-17.426-8.965h-25.252l-1.103-0.786l-0.358-0.72c-1.148-1.702-2.694-3.097-4.482-4.12l-0.358-0.72
		c-2.402-3.561-6.477-5.898-11.09-5.898h-44.41h-44.41c-7,0-12.681,5.399-13.261,12.248h-27.664c-11.941,0-21.55,9.655-21.55,21.55
		v15.728l-14.444-14.52h-8.995v13.301c0,1.088-0.131,2.145-0.322,3.178l-0.232,0.962c-0.171,0.7-0.378,1.38-0.635,2.04l-0.428,1.027
		c-0.287,0.63-0.625,1.229-0.987,1.818l-0.534,0.856c-0.549,0.786-1.153,1.526-1.823,2.211l-0.836,0.74
		c-0.458,0.413-0.927,0.816-1.425,1.173l-1.173,0.76c-0.458,0.277-0.932,0.534-1.42,0.771l-1.314,0.589
		c-1.934,0.745-4.019,1.199-6.22,1.199H29.301c-6.114,13.271-11.145,27.141-14.872,41.549
		c0.63,0.478,226.734,227.208,228.023,227.938v42.134c0,6.149-4.986,11.14-11.14,11.14v29.764
		c8.124,0.796,16.353,1.224,24.688,1.224c137.803,0,249.518-111.715,249.518-249.518C505.518,212.3,497.309,177.016,482.699,145.287
		L482.699,145.287z"/>
	<path style="fill:#F1B14F;" d="M342.201,91.897H169.799c-11.941,0-21.55,9.655-21.55,21.55v107.747
		c0,5.56,2.11,10.647,5.605,14.479l1.682,1.682l57.373,57.373h86.161l57.353-57.368l1.939-1.939
		c3.364-3.792,5.389-8.793,5.389-14.223V113.448C363.752,101.552,354.097,91.897,342.201,91.897L342.201,91.897z"/>
	<path style="fill:#F0973E;" d="M363.752,221.194L363.752,221.194c0,5.429-2.025,10.43-5.389,14.223l-1.939,1.944l-57.353,57.373
		H256v-73.54H148.248c0,5.56,2.11,10.647,5.605,14.479l1.682,1.682l57.373,57.373h11.09h64.414h10.657l57.353-57.368l1.939-1.939
		C361.727,231.624,363.752,226.628,363.752,221.194L363.752,221.194z"/>
	<polygon style="fill:#FFFFFF;" points="288.414,352.969 223.999,352.969 223.999,294.734 288.414,294.734 	"/>
	<polygon style="fill:#CEEAF2;" points="288.414,352.969 256,352.969 256,294.734 288.414,294.734 	"/>
	<polygon style="fill:#E6F4F8;" points="256,294.734 223.999,294.734 223.999,307.682 256,307.682 	"/>
	<polygon style="fill:#BAE0EC;" points="288.414,294.734 256,294.734 256,307.682 288.414,307.682 	"/>
	<path style="fill:#3194B0;" d="M269.961,456.908V352.969h-27.508v103.939c0,6.149-4.986,11.14-11.14,11.14V512h49.789v-43.952
		C274.947,468.048,269.961,463.062,269.961,456.908L269.961,456.908z"/>
	<path style="fill:#2B8199;" d="M269.961,456.908V352.969h-13.754V512h24.894v-43.952
		C274.947,468.048,269.961,463.062,269.961,456.908L269.961,456.908z"/>
	<polygon style="fill:#257E9B;" points="256.207,352.969 242.452,352.969 242.452,367.675 256.207,367.675 	"/>
	<polygon style="fill:#206E87;" points="269.961,352.969 256.207,352.969 256.207,367.675 269.961,367.675 	"/>
	<path style="fill:#F0973E;" d="M342.201,91.897H256v129.297h107.752V113.448C363.752,101.552,354.097,91.897,342.201,91.897
		L342.201,91.897z"/>
	<path style="fill:#EF8131;" d="M363.752,221.194H256v73.54h43.07l57.353-57.373l1.939-1.939
		C361.727,231.624,363.752,226.628,363.752,221.194L363.752,221.194z"/>
	<path style="fill:#FFFFFF;" d="M189.692,207.294c-7.675,0-13.9,6.225-13.9,13.9s6.225,13.9,13.9,13.9s13.9-6.225,13.9-13.9
		C203.592,213.519,197.367,207.294,189.692,207.294z M256.207,207.294c-7.675,0-13.9,6.225-13.9,13.9s6.225,13.9,13.9,13.9
		c7.675,0,13.9-6.225,13.9-13.9S263.882,207.294,256.207,207.294z M322.721,207.294c-7.675,0-13.9,6.225-13.9,13.9
		s6.225,13.9,13.9,13.9s13.9-6.225,13.9-13.9S330.396,207.294,322.721,207.294z"/>
	<path style="fill:#E46A5D;" d="M124.81,114.651v13.301c0,9.574-7.761,17.335-17.335,17.335H11.825c-4.22,0-7.64,8.431-7.64,18.836
		c0,10.4,3.42,18.831,7.64,18.831h95.649c9.574,0,17.335,7.761,17.335,17.335v13.301h8.995v-30.636v-37.661v-30.636h-8.995V114.651z
		"/>
	<rect x="133.804" y="145.73" style="fill:#E46A5D;" width="14.444" height="36.775"/>
	<path style="fill:#D45446;" d="M4.185,164.123c0,10.4,3.42,18.831,7.64,18.831h95.649c9.574,0,17.335,7.761,17.335,17.335v13.301
		h8.995v-30.636v-18.831H4.185L4.185,164.123z"/>
	<path style="fill:#69999B;" d="M124.81,128.108v0.015V128.108L124.81,128.108z M124.81,128.053v0.02V128.053L124.81,128.053z
		 M124.81,128.003v0.02V128.003L124.81,128.003z"/>
	<path style="fill:#5A898C;" d="M124.804,128.486c-0.222,7.282-4.941,13.417-11.463,15.764v0.02
		C119.869,141.923,124.583,135.768,124.804,128.486L124.804,128.486z M124.804,128.441v0.035V128.441L124.804,128.441z
		 M124.804,128.32v0.106V128.32L124.804,128.32z M124.81,128.274v0.025V128.274L124.81,128.274z M124.81,128.224v0.025V128.224
		L124.81,128.224z M124.81,128.174v0.02V128.174L124.81,128.174z"/>
	<path style="fill:#DA5549;" d="M124.81,127.952L124.81,127.952v0.05v0.02v0.035v0.02v0.035v0.015v0.05v0.02v0.03v0.025v0.025v0.025
		v0.025l-0.005,0.096v0.01v0.035v0.01c-0.222,7.282-4.936,13.442-11.463,15.789v19.848h11.473v-36.166H124.81z"/>
	<path style="fill:#5A898C;" d="M113.337,183.971v0.02c6.527,2.352,11.241,8.486,11.463,15.764
		C124.583,192.472,119.869,186.318,113.337,183.971L113.337,183.971z"/>
	<path style="fill:#DA5549;" d="M113.337,183.971L113.337,183.971c6.527,2.347,11.241,8.501,11.463,15.789l0,0
		C124.583,192.472,119.869,186.318,113.337,183.971L113.337,183.971z"/>
	<path style="fill:#5A898C;" d="M124.804,199.765v0.035V199.765z"/>
	<polygon style="fill:#DA5549;" points="124.804,199.765 124.804,199.765 124.804,199.8 124.804,199.8 	"/>
	<path style="fill:#5A898C;" d="M124.804,199.815v0.106V199.815z"/>
	<polygon style="fill:#DA5549;" points="124.804,199.815 124.804,199.815 124.804,199.921 124.804,199.921 	"/>
	<path style="fill:#5A898C;" d="M124.81,199.941v0.025V199.941z"/>
	<polygon style="fill:#DA5549;" points="124.81,199.941 124.81,199.941 124.81,199.966 124.81,199.966 	"/>
	<path style="fill:#5A898C;" d="M124.81,199.991v0.025V199.991z"/>
	<polygon style="fill:#DA5549;" points="124.81,199.991 124.81,199.991 124.81,200.017 124.81,200.017 	"/>
	<path style="fill:#5A898C;" d="M124.81,200.047v0.02V200.047z"/>
	<path style="fill:#5A898C;" d="M124.81,200.117v0.015V200.117z"/>
	<polygon style="fill:#DA5549;" points="124.81,200.117 124.81,200.117 124.81,200.132 124.81,200.132 	"/>
	<path style="fill:#5A898C;" d="M124.81,200.218v0.02V200.218z"/>
	<path style="fill:#CA4337;" d="M124.81,164.123h-11.473v19.848c6.532,2.347,11.246,8.501,11.463,15.789v0.01v0.035v0.01
		l0.005,0.106v0.025v0.025v0.025v0.025v0.03v0.02v0.05v0.015v0.035v0.02v0.035v0.02v0.05v-36.176H124.81z"/>
	<path style="fill:#E46A5D;" d="M387.191,114.651v13.301c0,9.574,7.761,17.335,17.335,17.335h95.649c4.22,0,7.64,8.431,7.64,18.831
		s-3.42,18.831-7.64,18.831h-95.649c-9.574,0-17.335,7.761-17.335,17.335v13.301h-8.995v-30.636v-37.661v-30.636L387.191,114.651
		L387.191,114.651z"/>
	<rect x="363.726" y="145.73" style="fill:#E46A5D;" width="14.444" height="36.775"/>
	<path style="fill:#D45446;" d="M507.815,164.123c0,10.4-3.42,18.831-7.64,18.831h-95.649c-9.574,0-17.335,7.761-17.335,17.335
		v13.301h-8.995v-30.636v-18.831H507.815L507.815,164.123z"/>
	<path style="fill:#5A898C;" d="M387.196,128.486c0.222,7.288,4.936,13.442,11.463,15.789v-0.02
		C392.136,141.898,387.417,135.763,387.196,128.486L387.196,128.486z M387.196,128.441v0.035V128.441L387.196,128.441z
		 M387.196,128.39v0.03V128.39L387.196,128.39z M387.191,128.32v0.055V128.32L387.191,128.32z M387.191,128.274v0.025V128.274
		L387.191,128.274z M387.191,128.224v0.02V128.224L387.191,128.224z M387.191,128.174v0.01V128.174L387.191,128.174z
		 M387.191,128.108v0.02V128.108L387.191,128.108z M387.191,128.053v0.02V128.053L387.191,128.053z M387.191,128.003v0.02V128.003
		L387.191,128.003z"/>
	<path style="fill:#DA5549;" d="M387.191,127.952v36.171h11.473v-19.848c-6.532-2.347-11.246-8.501-11.463-15.789v-0.01v-0.035
		v-0.015v-0.03v-0.015v-0.055v-0.02v-0.025v-0.025v-0.02v-0.035v-0.01v-0.05v-0.02v-0.035v-0.02v-0.035v-0.02L387.191,127.952
		L387.191,127.952z"/>
	<path style="fill:#5A898C;" d="M398.663,183.971c-0.64,0.232-1.259,0.494-1.858,0.796c-5.55,2.765-9.408,8.421-9.604,14.993
		c0.222-7.282,4.941-13.417,11.463-15.769V183.971L398.663,183.971z"/>
	<path style="fill:#DA5549;" d="M396.8,184.762c-5.55,2.765-9.408,8.421-9.604,14.993l0,0
		C387.397,193.182,391.25,187.532,396.8,184.762L396.8,184.762z"/>
	<path style="fill:#5A898C;" d="M387.196,199.765v0.035V199.765z"/>
	<polygon style="fill:#DA5549;" points="387.196,199.765 387.196,199.8 387.196,199.8 387.196,199.765 	"/>
	<polygon style="fill:#DA5549;" points="387.196,199.815 387.196,199.85 387.196,199.85 387.196,199.815 	"/>
	<path style="fill:#5A898C;" d="M387.196,199.865l-0.005,0.055L387.196,199.865z"/>
	<polygon style="fill:#DA5549;" points="387.196,199.86 387.191,199.921 387.191,199.921 387.196,199.865 	"/>
	<path style="fill:#5A898C;" d="M387.191,199.941v0.025V199.941z"/>
	<polygon style="fill:#DA5549;" points="387.191,199.941 387.191,199.966 387.191,199.966 387.191,199.941 	"/>
	<path style="fill:#5A898C;" d="M387.191,199.996v0.02V199.996z"/>
	<polygon style="fill:#DA5549;" points="387.191,199.996 387.191,200.017 387.191,200.017 387.191,199.996 	"/>
	<path style="fill:#5A898C;" d="M387.191,200.052v0.015V200.052z"/>
	<polygon style="fill:#DA5549;" points="387.191,200.052 387.191,200.067 387.191,200.067 387.191,200.052 	"/>
	<polygon style="fill:#DA5549;" points="387.191,200.117 387.191,200.132 387.191,200.132 387.191,200.117 	"/>
	<rect x="387.196" y="200.158" style="fill:#DA5549;" width="0.02" height="0.02"/>
	<path style="fill:#5A898C;" d="M387.191,200.218v0.02V200.218z"/>
	<path style="fill:#CA4337;" d="M398.663,164.123h-11.473v36.166v-0.05v-0.02v-0.035v-0.02v-0.03v-0.02v-0.05v-0.015v-0.035v-0.02
		v-0.025v-0.025v-0.02v-0.06v-0.01v-0.03v-0.015v-0.035v-0.01c0.196-6.572,4.054-12.228,9.604-14.993
		c0.599-0.297,1.224-0.564,1.858-0.796v-19.848H398.663z"/>
	<circle style="fill:#E46A5D;" cx="171.843" cy="114.651" r="8.249"/>
	<circle style="fill:#D45446;" cx="341.295" cy="114.651" r="8.249"/>
	<path style="fill:#E46A5D;" d="M313.792,93.025c0,7.388-5.988,13.376-13.376,13.376H211.59c-7.388,0-13.376-5.988-13.376-13.376
		s5.988-13.376,13.376-13.376h88.825C307.798,79.649,313.792,85.637,313.792,93.025z"/>
	<path style="fill:#D45446;" d="M300.41,79.649H256v26.753h44.41c7.388,0,13.376-5.988,13.376-13.376
		C313.792,85.637,307.798,79.649,300.41,79.649z"/>
</g>
<g>
</g>
<g>
</g>
<g>
</g>
<g>
</g>
<g>
</g>
<g>
</g>
<g>
</g>
<g>
</g>
<g>
</g>
<g>
</g>
<g>
</g>
<g>
</g>
<g>
</g>
<g>
</g>
<g>
</g>
</svg>
